HIERARCHY
ROOT hips
{
  OFFSET -0.00735851563513279 12.18665635585785 0.12248523347079754
  CHANNELS 6 Xposition Yposition Zposition Yrotation Xrotation Zrotation
  JOINT spine
  {
    OFFSET 1.0244548320770264e-7 0.5955291986465454 0
    CHANNELS 3 Yrotation Xrotation Zrotation
    JOINT chest
    {
      OFFSET 0 1.2719063864449713 0
      CHANNELS 3 Yrotation Xrotation Zrotation
      JOINT upperChest
      {
        OFFSET 0 1.490802666915459 0
        CHANNELS 3 Yrotation Xrotation Zrotation
        JOINT neck
        {
          OFFSET 0 1.3131953345263365 0
          CHANNELS 3 Yrotation Xrotation Zrotation
          JOINT head
          {
            OFFSET 0 0.8653679716847534 0
            CHANNELS 3 Yrotation Xrotation Zrotation
            JOINT leftEye
            {
              OFFSET 0.20629723300226033 0.6721053123474121 0.3036841657012701
              CHANNELS 3 Yrotation Xrotation Zrotation
              End Site
              {
                OFFSET 0.20629723300226033 0.6721053123474121 0.3036841657012701
              }
            }
            JOINT rightEye
            {
              OFFSET -0.20629652100615203 0.6721066236495972 0.30368443205952644
              CHANNELS 3 Yrotation Xrotation Zrotation
              End Site
              {
                OFFSET -0.20629652100615203 0.6721066236495972 0.30368443205952644
              }
            }
          }
        }
        JOINT leftShoulder
        {
          OFFSET 0.24624172446783632 0.959903359413147 0
          CHANNELS 3 Yrotation Xrotation Zrotation
          JOINT leftUpperArm
          {
            OFFSET 0.9650355761446514 0 0
            CHANNELS 3 Yrotation Xrotation Zrotation
            JOINT leftLowerArm
            {
              OFFSET 2.4419134471639827 0 0
              CHANNELS 3 Yrotation Xrotation Zrotation
              JOINT leftHand
              {
                OFFSET 2.3874557408809456 0 0
                CHANNELS 3 Yrotation Xrotation Zrotation
                JOINT leftIndexProximal
                {
                  OFFSET 0.7029628753662109 0.06118142604827881 0.23586585000157356
                  CHANNELS 3 Yrotation Xrotation Zrotation
                  JOINT leftIndexIntermediate
                  {
                    OFFSET 0.36102771759033203 -0.001475214958190918 0.056637559086084366
                    CHANNELS 3 Yrotation Xrotation Zrotation
                    JOINT leftIndexDistal
                    {
                      OFFSET 0.22344785928726196 -0.007408857345581055 0.02531452476978302
                      CHANNELS 3 Yrotation Xrotation Zrotation
                      End Site
                      {
                        OFFSET 0.22344785928726196 -0.007408857345581055 0.02531452476978302
                      }
                    }
                  }
                }
                JOINT leftLittleProximal
                {
                  OFFSET 0.6958752870559692 0.034375786781311035 -0.29472956992685795
                  CHANNELS 3 Yrotation Xrotation Zrotation
                  JOINT leftLittleIntermediate
                  {
                    OFFSET 0.34538060426712036 -0.0030041933059692383 0.00024324655532836914
                    CHANNELS 3 Yrotation Xrotation Zrotation
                    JOINT leftLittleDistal
                    {
                      OFFSET 0.19865047931671143 0.00746917724609375 -0.010377676226198673
                      CHANNELS 3 Yrotation Xrotation Zrotation
                      End Site
                      {
                        OFFSET 0.19865047931671143 0.00746917724609375 -0.010377676226198673
                      }
                    }
                  }
                }
                JOINT leftMiddleProximal
                {
                  OFFSET 0.7272291779518127 0.09209799766540527 0.05257739871740341
                  CHANNELS 3 Yrotation Xrotation Zrotation
                  JOINT leftMiddleIntermediate
                  {
                    OFFSET 0.40590834617614746 -0.014838695526123047 0.026817932724952698
                    CHANNELS 3 Yrotation Xrotation Zrotation
                    JOINT leftMiddleDistal
                    {
                      OFFSET 0.2495119571685791 -0.026458144187927246 0.010310646146535873
                      CHANNELS 3 Yrotation Xrotation Zrotation
                      End Site
                      {
                        OFFSET 0.2495119571685791 -0.026458144187927246 0.010310646146535873
                      }
                    }
                  }
                }
                JOINT leftRingProximal
                {
                  OFFSET 0.7334893345832825 0.09136629104614258 -0.1205735495314002
                  CHANNELS 3 Yrotation Xrotation Zrotation
                  JOINT leftRingIntermediate
                  {
                    OFFSET 0.3775520920753479 -0.005917906761169434 0.001896639820188284
                    CHANNELS 3 Yrotation Xrotation Zrotation
                    JOINT leftRingDistal
                    {
                      OFFSET 0.2177620530128479 0.007703900337219238 0.0027355607599020004
                      CHANNELS 3 Yrotation Xrotation Zrotation
                      End Site
                      {
                        OFFSET 0.2177620530128479 0.007703900337219238 0.0027355607599020004
                      }
                    }
                  }
                }
                JOINT leftThumbProximal
                {
                  OFFSET 0.02235114574432373 -0.07603192329406738 0.1950724683701992
                  CHANNELS 3 Yrotation Xrotation Zrotation
                  JOINT leftThumbIntermediate
                  {
                    OFFSET 0.3551589846611023 -0.02970755100250244 0.36741212010383606
                    CHANNELS 3 Yrotation Xrotation Zrotation
                    JOINT leftThumbDistal
                    {
                      OFFSET 0.23456048965454102 -0.016631245613098145 0.2093813568353653
                      CHANNELS 3 Yrotation Xrotation Zrotation
                      End Site
                      {
                        OFFSET 0.23456048965454102 -0.016631245613098145 0.2093813568353653
                      }
                    }
                  }
                }
              }
            }
          }
        }
        JOINT rightShoulder
        {
          OFFSET -0.24624088185373694 0.9600239992141724 0
          CHANNELS 3 Yrotation Xrotation Zrotation
          JOINT rightUpperArm
          {
            OFFSET -0.9650300767908009 0 0
            CHANNELS 3 Yrotation Xrotation Zrotation
            JOINT rightLowerArm
            {
              OFFSET -2.4420125187833426 0 0
              CHANNELS 3 Yrotation Xrotation Zrotation
              JOINT rightHand
              {
                OFFSET -2.3874255620910265 0 0
                CHANNELS 3 Yrotation Xrotation Zrotation
                JOINT rightIndexProximal
                {
                  OFFSET -0.7029609084129333 0.06117355823516846 0.23587234504520893
                  CHANNELS 3 Yrotation Xrotation Zrotation
                  JOINT rightIndexIntermediate
                  {
                    OFFSET -0.3610270619392395 -0.0014804601669311523 0.05664427950978279
                    CHANNELS 3 Yrotation Xrotation Zrotation
                    JOINT rightIndexDistal
                    {
                      OFFSET -0.2234485149383545 -0.0074127912521362305 0.025317884981632233
                      CHANNELS 3 Yrotation Xrotation Zrotation
                      End Site
                      {
                        OFFSET -0.2234485149383545 -0.0074127912521362305 0.025317884981632233
                      }
                    }
                  }
                }
                JOINT rightLittleProximal
                {
                  OFFSET -0.6958779096603394 0.034366607666015625 -0.29472311586141586
                  CHANNELS 3 Yrotation Xrotation Zrotation
                  JOINT rightLittleIntermediate
                  {
                    OFFSET -0.3453786373138428 -0.003008127212524414 0.00025422871112823486
                    CHANNELS 3 Yrotation Xrotation Zrotation
                    JOINT rightLittleDistal
                    {
                      OFFSET -0.19865179061889648 0.00746917724609375 -0.010371447540819645
                      CHANNELS 3 Yrotation Xrotation Zrotation
                      End Site
                      {
                        OFFSET -0.19865179061889648 0.00746917724609375 -0.010371447540819645
                      }
                    }
                  }
                }
                JOINT rightMiddleProximal
                {
                  OFFSET -0.7272304892539978 0.09209012985229492 0.05258418060839176
                  CHANNELS 3 Yrotation Xrotation Zrotation
                  JOINT rightMiddleIntermediate
                  {
                    OFFSET -0.4059063792228699 -0.014843940734863281 0.026821313425898552
                    CHANNELS 3 Yrotation Xrotation Zrotation
                    JOINT rightMiddleDistal
                    {
                      OFFSET -0.24951326847076416 -0.026460766792297363 0.010313207283616066
                      CHANNELS 3 Yrotation Xrotation Zrotation
                      End Site
                      {
                        OFFSET -0.24951326847076416 -0.026460766792297363 0.010313207283616066
                      }
                    }
                  }
                }
                JOINT rightRingProximal
                {
                  OFFSET -0.7334906458854675 0.09135580062866211 -0.12056719791144133
                  CHANNELS 3 Yrotation Xrotation Zrotation
                  JOINT rightRingIntermediate
                  {
                    OFFSET -0.37755340337753296 -0.005923151969909668 0.0019026175141334534
                    CHANNELS 3 Yrotation Xrotation Zrotation
                    JOINT rightRingDistal
                    {
                      OFFSET -0.21775943040847778 0.007701277732849121 0.0027383523993194103
                      CHANNELS 3 Yrotation Xrotation Zrotation
                      End Site
                      {
                        OFFSET -0.21775943040847778 0.007701277732849121 0.0027383523993194103
                      }
                    }
                  }
                }
                JOINT rightThumbProximal
                {
                  OFFSET -0.022347867488861084 -0.07603061199188232 0.19507363624870777
                  CHANNELS 3 Yrotation Xrotation Zrotation
                  JOINT rightThumbIntermediate
                  {
                    OFFSET -0.3550455570220947 -0.029461026191711426 0.36754218488931656
                    CHANNELS 3 Yrotation Xrotation Zrotation
                    JOINT rightThumbDistal
                    {
                      OFFSET -0.23451131582260132 -0.016489624977111816 0.20944765955209732
                      CHANNELS 3 Yrotation Xrotation Zrotation
                      End Site
                      {
                        OFFSET -0.23451131582260132 -0.016489624977111816 0.20944765955209732
                      }
                    }
                  }
                }
              }
            }
          }
        }
      }
    }
  }
  JOINT leftUpperLeg
  {
    OFFSET 0.8483456987887621 -0.42556869983673096 0
    CHANNELS 3 Yrotation Xrotation Zrotation
    JOINT leftLowerLeg
    {
      OFFSET 0 -4.6702112872869534 0
      CHANNELS 3 Yrotation Xrotation Zrotation
      JOINT leftFoot
      {
        OFFSET -0.13096565008163452 -5.202569782733917 -0.2985280640423298
        CHANNELS 3 Yrotation Xrotation Zrotation
        JOINT leftToes
        {
          OFFSET 0.01423943042755127 -0.7568342834711075 1.213271364569664
          CHANNELS 3 Yrotation Xrotation Zrotation
          End Site
          {
            OFFSET 0.01423943042755127 -0.7568342834711075 1.213271364569664
          }
        }
      }
    }
  }
  JOINT rightUpperLeg
  {
    OFFSET -0.8483468051999807 -0.42556607723236084 0
    CHANNELS 3 Yrotation Xrotation Zrotation
    JOINT rightLowerLeg
    {
      OFFSET 0 -4.670219469177788 0
      CHANNELS 3 Yrotation Xrotation Zrotation
      JOINT rightFoot
      {
        OFFSET 0.13097601756453514 -5.202573716640472 -0.29853164963424206
        CHANNELS 3 Yrotation Xrotation Zrotation
        JOINT rightToes
        {
          OFFSET -0.014232628047466278 -0.7568355947732925 1.213272675871849
          CHANNELS 3 Yrotation Xrotation Zrotation
          End Site
          {
            OFFSET -0.014232628047466278 -0.7568355947732925 1.213272675871849
          }
        }
      }
    }
  }
}
MOTION
Frames: 9
Frame Time: 0.03333333333333333
0 11.682718080999717 0 0 0 0 0 -4.610651315171937 0 0 3.0831277533083026 0 0 0 0 0 1.5275236235667615 0 0 0 0 0 0 0 0 0 0 0 1.5275236235667615 0 0 0 0 0 0 0 0 0 0 0 0 0 0 0 0 0 0 0 0 0 0 0 0 0 0 0 0 0 0 0 0 0 0 0 0 0 0 0 0 0 0 0 0 0 0 0 0 0 0 0 0 0 0 0 0 1.5275236235667615 0 0 0 0 0 0 0 0 0 0 0 0 0 0 0 0 0 0 0 0 0 0 0 0 0 0 0 0 0 0 0 0 0 0 0 0 0 0 0 0 0 0 0 0 0 0 0 0 0 0 0 0 0 0 0 0 0 -5.826343164929014 -0.3712483961610101 -3.6333298826370974 5.838118207697276 0 0 0 0 0 0 0 0 5.826343164929014 0.3712483961610101 -3.6333298826370974 -5.838118207697276 0 0 0 0 0 0
-0.31312431652375616 9.735598400833098 0.044732045217679456 0.1666666693786489 0 0 -0.16666666864806648 -4.610651315171937 7.790235711933251e-19 0 3.24979449029366 0 0 0 0 -7.767786460854128e-19 1.5275236235667615 0.3333333306442733 -2.343079127611882 1.9000251084561475 2.9411974293565826 0 0 0 0 0 0 -0.4988000031707073 3.1939199622441157 0.02308834331318966 -3.2652844069626146 5.036294391501451 -15.730852257827813 -4.07724866422941 3.4213754931683877 -0.07412947479227336 -1.818844321456189 4.743405685991283 -5.939668156564032 0 0 0 0 0 0 0 0 0 0 0 0 0 0 0 0 0 0 0 0 0 0 0 0 0 0 0 0 0 0 0 0 0 0 0 0 0 0 0 0 0 0 0 0 0 0.4988000031707073 3.1939199622441157 -0.02308834331318966 3.2652844069626146 5.036294391501451 15.730852257827813 3.092081283331961 3.403965630532567 0.22306901608286542 0.445520022400827 1.2758638613455628 5.496177115939896 0 0 0 0 0 0 0 0 0 0 0 0 0 0 0 0 0 0 0 0 0 0 0 0 0 0 0 0 0 0 0 0 0 0 0 0 0 0 0 0 0 0 0 0 0 -5.088011488716358 -2.281393136680009 -6.338538729746239 0.6139540043841691 3.434270481857104 6.872547916929893 -0.7268454131719977 2.8588055048464334 -0.9358499854093008 0 0 0 0.3354143192163672 0.15360422820102637 5.496061215038054 0.49082716798596393 -3.787684075677248 -6.007117472469027 -1.4996715079723368 0.49898668461605894 -0.05473554850980905 0 0 0
-0.6262486330475123 7.788478720666478 0.08946409043535891 0.33333333610473587 0 0 -0.33333332385940145 -4.610651315171937 3.1160942847733004e-18 0 3.4164609628722964 0 0 0 0 -1.5535572921708256e-18 1.5275236235667615 0.6666666619971874 -4.589478508655876 3.916285275189893 5.807250540814804 0 0 0 0 0 0 -0.997948673795912 4.860453973961148 0.03166586677189068 -7.818710025025275 8.98377593204944 -31.874396227662736 -8.180809732508145 6.828758207120565 -0.39332549398773964 -4.142690846622409 9.26927756788325 -12.087718254473597 0 0 0 0 0 0 0 0 0 0 0 0 0 0 0 0 0 0 0 0 0 0 0 0 0 0 0 0 0 0 0 0 0 0 0 0 0 0 0 0 0 0 0 0 0 0.997948673795912 4.860453973961148 -0.03166586677189068 7.818710025025275 8.98377593204944 31.874396227662736 6.2138651639438445 6.790851317137496 0.6317952881917767 1.0116180094119536 2.5031279764309255 11.006060188106177 0 0 0 0 0 0 0 0 0 0 0 0 0 0 0 0 0 0 0 0 0 0 0 0 0 0 0 0 0 0 0 0 0 0 0 0 0 0 0 0 0 0 0 0 0 -10.167705841681228 -4.599183548644279 -6.647025747862655 1.7433562799411135 10.481624340740856 8.045772917506326 -1.5032123801654014 5.705096570971839 -1.9115486776380277 0 0 0 0.6699412808421332 0.3091367688435033 5.166680490961712 0.6108834982191491 -3.9416854009297073 -6.1764700606613765 -2.9999891374225762 0.9963695919374927 -0.12251944795489642 0 0 0
-0.9393729495712686 5.841359040499858 0.13419613565303837 0.4999999975737198 0 0 -0.4999999989443499 -4.610651315171937 -3.1160942847733004e-18 0 3.5831277260952104 0 0 0 0 -1.5535572921708256e-18 1.5275236235667615 1.0000000093531036 -6.738825010211078 6.040843186250521 8.600726894505417 0 0 0 0 0 0 -1.498296078407534 6.526999352098917 0.025657014093636927 -13.355000676463682 11.498364121271102 -48.44688320813324 -12.340121493137293 10.20439751813321 -0.9621401224999786 -6.98689785445371 13.515535404517003 -18.514353847084177 0 0 0 0 0 0 0 0 0 0 0 0 0 0 0 0 0 0 0 0 0 0 0 0 0 0 0 0 0 0 0 0 0 0 0 0 0 0 0 0 0 0 0 0 0 1.498296078407534 6.526999352098917 -0.025657014093636927 13.355000676463682 11.498364121271102 48.44688320813324 9.387587554220477 10.15028512673637 1.230775591303021 1.6938046410614234 3.6702913686690253 16.53401288935559 0 0 0 0 0 0 0 0 0 0 0 0 0 0 0 0 0 0 0 0 0 0 0 0 0 0 0 0 0 0 0 0 0 0 0 0 0 0 0 0 0 0 0 0 0 -15.255677660154372 -6.935139472447211 -6.7488888560379054 3.0585533062034127 17.50260452992195 9.400528014173469 -2.3332771103603474 8.537474325848855 -2.9321979050950016 0 0 0 1.0035747162392035 0.4665871719912063 4.838207464837789 0.731418302598782 -4.095331355181153 -6.346177581626001 -4.50117667175122 1.4918068385131338 -0.2033198404651567 0 0 0
-1.2524972660950247 3.8942393603332395 0.17892818087071782 0.6666667046343417 0 0 -0.6666666874419281 -4.610651315171937 -6.232188569546601e-18 0 3.7497944795635045 0 0 0 0 0 1.5275236235667615 1.3333332843278174 -8.791300100339937 8.266000972979441 11.325120569255448 0 0 0 0 0 0 -2.0007035193465112 8.193429070165994 0.004924492167719886 -19.42675426946254 12.339352283906372 -65.28923100234144 -16.58508987310223 13.529767050055563 -1.7881414639973965 -10.366690453019935 17.413603888316707 -25.280643735861776 0 0 0 0 0 0 0 0 0 0 0 0 0 0 0 0 0 0 0 0 0 0 0 0 0 0 0 0 0 0 0 0 0 0 0 0 0 0 0 0 0 0 0 0 0 2.0007035193465112 8.193429070165994 -0.004924492167719886 19.42675426946254 12.339352283906372 65.28923100234144 12.636146182339706 13.471277576633826 2.0273104366090027 2.486620476723271 4.766260031724224 22.083548390302447 0 0 0 0 0 0 0 0 0 0 0 0 0 0 0 0 0 0 0 0 0 0 0 0 0 0 0 0 0 0 0 0 0 0 0 0 0 0 0 0 0 0 0 0 0 -20.369085023605177 -9.270856323320343 -6.641091846348129 4.618547964226723 24.488519666670317 10.996681640603535 -3.221853020755327 11.354350230046453 -4.003433354336787 0 0 0 1.3363088461595152 0.6259450205941315 4.510648129063195 0.8524324832277504 -4.248619846304921 -6.516242302075639 -6.003454676414176 1.9849567381736406 -0.29710056515457534 0 0 0
-1.5656215826187811 1.9471196801666188 0.22366022608839728 0.8333332985368548 0 0 -0.8333333625355378 -4.610651315171937 0 0 3.9164611363448825 0 0 0 0 0 1.5275236235667615 1.6666667039980525 -10.747458663054921 10.58434554710439 13.984742600301749 0 0 0 0 0 0 -2.506049276851423 9.859612975145264 -0.03073237172763292 -25.486051633592737 11.421683663264202 -82.1250329018559 -20.94619195902145 16.78514653072436 -2.8817304874016814 -14.289483601320303 20.888467078421286 -32.432923741274976 0 0 0 0 0 0 0 0 0 0 0 0 0 0 0 0 0 0 0 0 0 0 0 0 0 0 0 0 0 0 0 0 0 0 0 0 0 0 0 0 0 0 0 0 0 2.506049276851423 9.859612975145264 0.03073237172763292 25.486051633592737 11.421683663264202 82.1250329018559 15.983397816419723 16.741943498547048 3.03141279331179 3.383578206292503 5.78044331337089 27.657208719572722 0 0 0 0 0 0 0 0 0 0 0 0 0 0 0 0 0 0 0 0 0 0 0 0 0 0 0 0 0 0 0 0 0 0 0 0 0 0 0 0 0 0 0 0 0 -25.525347770488608 -11.587652783833247 -6.320470586201781 6.50942373212283 31.426614193866424 12.920992302979595 -4.174473189917105 14.153917685934006 -5.1315215728382375 0 0 0 1.6681377694215564 0.7871996921550336 4.184008758751519 0.9739269459222366 -4.401549193593042 -6.686665507024783 -7.50704033174788 2.475478678841765 -0.40382108208347745 0 0 0
-1.8787458991425372 0 0.26839227130607674 0.9999999465488009 0 0 -1.0000000516956908 -4.610651315171937 6.232188569546601e-18 0 4.083127609166845 0 0 0 0 -3.107114584341651e-18 1.5275236235667615 2.0000000101755764 -12.608047043073581 12.988782990847055 16.584627194744943 0 0 0 0 0 0 -3.0152356514417873 11.525419771063351 -0.08157993065910767 -30.98751399685849 8.83804944906745 -98.6808080543747 -25.454386109937797 19.94920904337855 -4.25579608916338 -18.745053192168758 23.860330971893575 -39.994598973330866 0 0 0 0 0 0 0 0 0 0 0 0 0 0 0 0 0 0 0 0 0 0 0 0 0 0 0 0 0 0 0 0 0 0 0 0 0 0 0 0 0 0 0 0 0 3.0152356514417873 11.525419771063351 0.08157993065910767 30.98751399685849 8.83804944906745 98.6808080543747 19.45438573523156 19.94920904337855 4.25579608916338 4.377114270142906 6.702864233046421 33.25644952682229 0 0 0 0 0 0 0 0 0 0 0 0 0 0 0 0 0 0 0 0 0 0 0 0 0 0 0 0 0 0 0 0 0 0 0 0 0 0 0 0 0 0 0 0 0 -30.7418042654556 -13.866468582560916 -5.7838377635292115 8.861084171600444 38.297429558133175 15.30389885488808 -5.197486520497663 16.934110739726936 -6.3234671785099135 0 0 0 1.9990561653342367 0.9503407073608732 3.858294370992766 1.0959024270672864 -4.5541172716544756 -6.857449319641767 -9.01214839863984 2.963031872227516 -0.5234362225938204 0 0 0
-1.8787458991425372 0 0.26839227130607674 0.9999999465488009 0 0 -1.0000000516956908 -4.610651315171937 6.232188569546601e-18 0 4.083127609166845 0 0 0 0 -3.107114584341651e-18 1.5275236235667615 2.0000000101755764 -12.608047043073581 12.988782990847055 16.584627194744943 0 0 0 0 0 0 -3.0152356514417873 11.525419771063351 -0.08157993065910767 -30.98751399685849 8.83804944906745 -98.6808080543747 -25.454386109937797 19.94920904337855 -4.25579608916338 -18.745053192168758 23.860330971893575 -39.994598973330866 0 0 0 0 0 0 0 0 0 0 0 0 0 0 0 0 0 0 0 0 0 0 0 0 0 0 0 0 0 0 0 0 0 0 0 0 0 0 0 0 0 0 0 0 0 3.0152356514417873 11.525419771063351 0.08157993065910767 30.98751399685849 8.83804944906745 98.6808080543747 19.45438573523156 19.94920904337855 4.25579608916338 4.377114270142906 6.702864233046421 33.25644952682229 0 0 0 0 0 0 0 0 0 0 0 0 0 0 0 0 0 0 0 0 0 0 0 0 0 0 0 0 0 0 0 0 0 0 0 0 0 0 0 0 0 0 0 0 0 -30.7418042654556 -13.866468582560916 -5.7838377635292115 8.861084171600444 38.297429558133175 15.30389885488808 -5.197486520497663 16.934110739726936 -6.3234671785099135 0 0 0 1.9990561653342367 0.9503407073608732 3.858294370992766 1.0959024270672864 -4.5541172716544756 -6.857449319641767 -9.01214839863984 2.963031872227516 -0.5234362225938204 0 0 0
-1.8787458991425372 0 0.26839227130607674 0.9999999465488009 0 0 -1.0000000516956908 -4.610651315171937 6.232188569546601e-18 0 4.083127609166845 0 0 0 0 3.107114584341651e-18 1.5275236235667615 2.0000000101755764 -12.608047043073581 12.988782990847055 16.584627194744943 0 0 0 0 0 0 -3.0152356514417873 11.525419771063351 -0.08157993065910767 -30.98751399685849 8.83804944906745 -98.6808080543747 -25.454386109937797 19.94920904337855 -4.25579608916338 -18.745053192168758 23.860330971893575 -39.994598973330866 0 0 0 0 0 0 0 0 0 0 0 0 0 0 0 0 0 0 0 0 0 0 0 0 0 0 0 0 0 0 0 0 0 0 0 0 0 0 0 0 0 0 0 0 0 3.0152356514417873 11.525419771063351 0.08157993065910767 30.98751399685849 8.83804944906745 98.6808080543747 19.45438573523156 19.94920904337855 4.25579608916338 4.377114270142906 6.702864233046421 33.25644952682229 0 0 0 0 0 0 0 0 0 0 0 0 0 0 0 0 0 0 0 0 0 0 0 0 0 0 0 0 0 0 0 0 0 0 0 0 0 0 0 0 0 0 0 0 0 -30.7418042654556 -13.866468582560916 -5.7838377635292115 8.861084171600444 38.297429558133175 15.30389885488808 -5.197486520497663 16.934110739726936 -6.3234671785099135 0 0 0 1.9990561653342367 0.9503407073608732 3.858294370992766 1.0959024270672864 -4.5541172716544756 -6.857449319641767 -9.01214839863984 2.963031872227516 -0.5234362225938204 0 0 0
